<svg width="446" height="31" viewBox="0 0 446 31" fill="none" xmlns="http://www.w3.org/2000/svg">
<g clip-path="url(#clip0_804_5)">
<path d="M0 0.4375H16.7244V5.68937H6.15217V12.6676H14.5793V17.921H6.15217V25.3164H16.7306V30.5698H0V0.4375Z" fill="#F3F0EB"/>
<path d="M22.0723 0.4375H28.2167V25.3164H38.3203V30.5698H22.0815L22.0723 0.4375Z" fill="#F3F0EB"/>
<path d="M52.3057 22.303V8.69698C52.3057 3.09923 55.5534 0 61.3483 0C67.1433 0 70.3462 3.09923 70.3462 8.69698V10.8921H64.5512V8.47703C64.5512 6.28192 63.4547 5.07589 61.4798 5.07589C59.5482 5.07589 58.4501 6.2895 58.4501 8.47703V22.5139C58.4501 24.709 59.5482 25.915 61.4798 25.915C63.4547 25.915 64.5512 24.7014 64.5512 22.5139V19.2478H70.3462V22.3045C70.3462 27.9023 67.1417 31.0015 61.3483 31.0015C55.555 31.0015 52.3057 27.8947 52.3057 22.303Z" fill="#F3F0EB"/>
<path d="M75.8242 0.4375H81.9702V25.3164H92.0661V30.5698H75.8273L75.8242 0.4375Z" fill="#F3F0EB"/>
<path d="M96.7549 22.3036V0.4375H102.901V22.654C102.901 24.7202 103.954 25.7533 106.017 25.7533C108.08 25.7533 109.133 24.7202 109.133 22.654V0.4375H115.06V22.3097C115.06 27.7709 111.899 31.0067 105.886 31.0067C99.8727 31.0067 96.7549 27.7724 96.7549 22.3036Z" fill="#F3F0EB"/>
<path d="M121.24 0.4375H130.503C136.647 0.4375 139.588 2.84803 139.588 7.97247V8.53072C139.588 11.6315 138.314 13.5702 135.639 14.5153V14.6458C138.753 15.6364 140.202 17.9179 140.202 21.7499V22.2672C140.202 27.9074 137.264 30.5758 131.078 30.5758H121.24V0.4375ZM129.756 12.4492C132.301 12.4492 133.443 11.4601 133.443 9.26344V8.70366C133.443 6.5935 132.515 5.68937 130.326 5.68937H127.388V12.4492H129.756ZM131.072 25.3225C133.18 25.3225 134.058 24.4123 134.058 22.2672V21.448C134.058 18.6491 133.091 17.7025 130.107 17.7025H127.385V25.3164L131.072 25.3225Z" fill="#F3F0EB"/>
<path d="M155.071 0.4375H164.422C170.391 0.4375 173.596 3.40779 173.596 8.96154V22.0518C173.596 27.6055 170.391 30.5758 164.422 30.5758H155.071V0.4375ZM164.334 25.3164C166.528 25.3164 167.45 24.3698 167.45 22.1307V8.86901C167.45 6.63142 166.522 5.6833 164.334 5.6833H161.217V25.3164H164.334Z" fill="#F3F0EB"/>
<path d="M179.468 0.4375H196.192V5.68937H185.614V12.6676H194.041V17.921H185.614V25.3164H196.192V30.5698H179.468V0.4375Z" fill="#F3F0EB"/>
<path d="M211.018 0.4375H217.162V25.3164H227.259V30.5698H211.021L211.018 0.4375Z" fill="#F3F0EB"/>
<path d="M244.63 25.101H237.738L236.728 30.5698H230.892L237.259 0.4375H245.558L251.923 30.5758H245.646L244.63 25.101ZM243.665 19.9431L241.162 6.46608L238.703 19.9431H243.665Z" fill="#F3F0EB"/>
<path d="M266.262 0.4375H274.91L278.992 21.448L283.031 0.4375H291.678V30.5758H285.883V8.13782L281.319 30.5698H276.18L271.614 8.13782V30.5698H266.259L266.262 0.4375Z" fill="#F3F0EB"/>
<path d="M298.074 0.4375H304.22V30.5758H298.074V0.4375Z" fill="#F3F0EB"/>
<path d="M310.624 0.4375H316.768V25.3164H326.866V30.5698H310.627L310.624 0.4375Z" fill="#F3F0EB"/>
<path d="M344.241 25.101H337.349L336.339 30.5698H330.501L336.867 0.4375H345.156L351.522 30.5758H345.244L344.241 25.101ZM343.275 19.9431L340.773 6.46608L338.314 19.9431H343.275Z" fill="#F3F0EB"/>
<path d="M356.39 0.4375H363.985L370.131 17.8739V0.4375H375.623V30.5758H369.436L361.886 9.13448V30.5758H356.399L356.39 0.4375Z" fill="#F3F0EB"/>
<path d="M382.017 0.4375H398.741V5.68937H388.163V12.6676H396.59V17.921H388.163V25.3164H398.741V30.5698H382.017V0.4375Z" fill="#F3F0EB"/>
<path d="M403.167 22.7377V21.4013H408.96V22.7377C408.96 24.5885 409.927 25.9235 412.121 25.9235C414.053 25.9235 415.326 24.7614 415.326 22.7377C415.326 20.1588 414.273 19.508 410.102 17.5268C404.834 15.0298 403.297 12.4464 403.297 8.22759C403.297 3.31856 406.456 0.00390625 412.383 0.00390625C418.309 0.00390625 421.246 3.32008 421.246 8.31103V9.17116H415.453V8.35351C415.453 6.45877 414.574 5.08132 412.425 5.08132C410.536 5.08132 409.438 6.29493 409.438 8.13809C409.438 10.4637 410.624 11.1524 414.749 13.0896C420.148 15.6306 421.466 18.299 421.466 22.6058C421.466 27.6862 418.218 31.0009 412.205 31.0009C406.192 31.0009 403.167 27.6862 403.167 22.7377Z" fill="#F3F0EB"/>
<path d="M438.713 25.101H431.821L430.811 30.5698H424.975L431.339 0.4375H439.634L446 30.5758H439.722L438.713 25.101ZM437.748 19.9431L435.245 6.46608L432.786 19.9431H437.748Z" fill="#F3F0EB"/>
</g>
<defs>
<clipPath id="clip0_804_5">
<rect width="446" height="31" fill="white"/>
</clipPath>
</defs>
</svg>
