<svg width="283" height="20" viewBox="0 0 283 20" fill="none" xmlns="http://www.w3.org/2000/svg">
<g clip-path="url(#clip0_828_867)">
<path d="M0 0.28125H10.6121V3.66955H3.90373V8.17163H9.251V11.5609H3.90373V16.3321H10.616V19.7214H0V0.28125Z" fill="#231F20"/>
<path d="M14.0056 0.28125H17.9044V16.3321H24.3155V19.7214H14.0115L14.0056 0.28125Z" fill="#231F20"/>
<path d="M33.1895 14.389V5.61096C33.1895 1.99951 35.2502 0 38.9273 0C42.6043 0 44.6367 1.99951 44.6367 5.61096V7.02716H40.9596V5.46905C40.9596 4.05285 40.2639 3.27477 39.0107 3.27477C37.785 3.27477 37.0883 4.05774 37.0883 5.46905V14.5251C37.0883 15.9413 37.785 16.7193 39.0107 16.7193C40.2639 16.7193 40.9596 15.9364 40.9596 14.5251V12.4179H44.6367V14.39C44.6367 18.0015 42.6034 20.001 38.9273 20.001C35.2512 20.001 33.1895 17.9966 33.1895 14.389Z" fill="#231F20"/>
<path d="M48.1125 0.28125H52.0124V16.3321H58.4185V19.7214H48.1145L48.1125 0.28125Z" fill="#231F20"/>
<path d="M61.394 14.3884V0.28125H65.2938V14.6145C65.2938 15.9475 65.9621 16.614 67.2712 16.614C68.5803 16.614 69.2486 15.9475 69.2486 14.6145V0.28125H73.0091V14.3923C73.0091 17.9157 71.0032 20.0033 67.1878 20.0033C63.3724 20.0033 61.394 17.9167 61.394 14.3884Z" fill="#231F20"/>
<path d="M76.9304 0.28125H82.8076C86.7064 0.28125 88.5729 1.83643 88.5729 5.14252V5.50268C88.5729 7.50317 87.7643 8.75397 86.0666 9.36371V9.44788C88.043 10.087 88.9625 11.559 88.9625 14.0312V14.3649C88.9625 18.0038 87.098 19.7253 83.1727 19.7253H76.9304V0.28125ZM82.3336 8.0307C83.9489 8.0307 84.6731 7.39258 84.6731 5.97541V5.61426C84.6731 4.25287 84.0843 3.66955 82.6957 3.66955H80.8312V8.0307H82.3336ZM83.1687 16.3361C84.5063 16.3361 85.0637 15.7488 85.0637 14.3649V13.8364C85.0637 12.0307 84.4504 11.42 82.5564 11.42H80.8292V16.3321L83.1687 16.3361Z" fill="#231F20"/>
<path d="M98.397 0.28125H104.33C108.118 0.28125 110.151 2.19756 110.151 5.78063V14.2259C110.151 17.809 108.118 19.7253 104.33 19.7253H98.397V0.28125ZM104.274 16.3321C105.667 16.3321 106.252 15.7214 106.252 14.2768V5.72093C106.252 4.27733 105.663 3.66563 104.274 3.66563H102.297V16.3321H104.274Z" fill="#231F20"/>
<path d="M113.877 0.28125H124.49V3.66955H117.777V8.17163H123.125V11.5609H117.777V16.3321H124.49V19.7214H113.877V0.28125Z" fill="#231F20"/>
<path d="M133.897 0.28125H137.796V16.3321H144.203V19.7214H133.899L133.897 0.28125Z" fill="#231F20"/>
<path d="M155.225 16.1932H150.852L150.211 19.7214H146.508L150.548 0.28125H155.814L159.853 19.7253H155.87L155.225 16.1932ZM154.613 12.8655L153.025 4.17065L151.465 12.8655H154.613Z" fill="#231F20"/>
<path d="M168.951 0.28125H174.438L177.028 13.8364L179.591 0.28125H185.078V19.7253H181.401V5.2492L178.505 19.7214H175.244L172.347 5.2492V19.7214H168.949L168.951 0.28125Z" fill="#231F20"/>
<path d="M189.137 0.28125H193.037V19.7253H189.137V0.28125Z" fill="#231F20"/>
<path d="M197.1 0.28125H200.999V16.3321H207.406V19.7214H197.102L197.1 0.28125Z" fill="#231F20"/>
<path d="M218.431 16.1932H214.058L213.417 19.7214H209.712L213.752 0.28125H219.011L223.051 19.7253H219.067L218.431 16.1932ZM217.818 12.8655L216.23 4.17065L214.67 12.8655H217.818Z" fill="#231F20"/>
<path d="M226.14 0.28125H230.959L234.859 11.5306V0.28125H238.343V19.7253H234.418L229.627 5.89221V19.7253H226.146L226.14 0.28125Z" fill="#231F20"/>
<path d="M242.4 0.28125H253.012V3.66955H246.3V8.17163H251.647V11.5609H246.3V16.3321H253.012V19.7214H242.4V0.28125Z" fill="#231F20"/>
<path d="M255.821 14.6709V13.8086H259.497V14.6709C259.497 15.8649 260.11 16.7262 261.503 16.7262C262.729 16.7262 263.536 15.9765 263.536 14.6709C263.536 13.0071 262.868 12.5872 260.221 11.309C256.879 9.69806 255.903 8.03131 255.903 5.30951C255.903 2.14239 257.908 0.00390625 261.669 0.00390625C265.429 0.00390625 267.293 2.14337 267.293 5.36334V5.91826H263.617V5.39075C263.617 4.16833 263.059 3.27966 261.695 3.27966C260.497 3.27966 259.8 4.06263 259.8 5.25177C259.8 6.75213 260.553 7.19647 263.17 8.44629C266.596 10.0856 267.432 11.8072 267.432 14.5858C267.432 17.8635 265.371 20.0019 261.556 20.0019C257.741 20.0019 255.821 17.8635 255.821 14.6709Z" fill="#231F20"/>
<path d="M278.376 16.1932H274.003L273.362 19.7214H269.659L273.697 0.28125H278.961L283 19.7253H279.017L278.376 16.1932ZM277.763 12.8655L276.176 4.17065L274.615 12.8655H277.763Z" fill="#231F20"/>
</g>
<defs>
<clipPath id="clip0_828_867">
<rect width="283" height="20" fill="white"/>
</clipPath>
</defs>
</svg>
