<svg width="48" height="38" viewBox="0 0 48 38" fill="none" xmlns="http://www.w3.org/2000/svg">
<path d="M47.7236 5.86267C47.7236 5.86267 40.5438 2.43303 37.0328 7.57515C37.0328 7.57515 34.2641 3.30331 29.6636 2.01661C27.9371 1.53468 26.4421 0.159083 24.6998 0C24.5998 1.04807 24.3787 6.85927 30.2689 16.0627C30.6532 16.2966 31.09 16.5212 31.4954 16.6475C32.5113 16.9657 34.0641 18.1027 32.8429 21.3966L32.685 21.8505C32.685 21.8505 32.685 21.8552 32.685 21.8598C28.4318 20.5357 28.3739 18.5706 28.7635 17.6535C28.974 17.1622 29.0688 16.5212 29.1109 16.0299C23.5313 7.13533 23.5681 1.46918 23.6945 0.0327523C21.9048 0.308808 20.2414 1.54872 18.915 1.99789C13.4617 3.84606 11.472 7.57515 11.472 7.57515C7.95579 2.43303 0.781275 5.86267 0.781275 5.86267C0.781275 5.86267 -1.21896 12.9652 9.09276 13.8496C9.09803 13.8496 9.10855 13.8496 9.11382 13.8496H9.09803L9.32963 14.3923L17.9096 34.4274C18.3412 35.438 19.1624 36.2756 20.2256 36.8043C21.3731 37.3704 22.8996 37.9787 24.1787 37.9787C25.921 37.9787 27.3791 37.4359 28.4003 36.8978C29.3741 36.3878 30.1005 35.5737 30.5005 34.6333L39.4015 13.8496H39.3857C49.7238 12.9746 47.7183 5.85799 47.7183 5.85799M24.4261 8.20212C24.4261 8.20212 24.584 9.54497 25.0683 10.3029C25.542 11.0469 25.821 12.6564 22.5206 14.3081L22.3048 14.4297C20.5836 11.5569 21.7048 10.0129 22.568 9.60111C23.4523 9.18001 24.4314 8.20212 24.4314 8.20212M21.1521 4.26716C22.089 3.94432 23.1997 3.07404 23.1997 3.07404C23.1997 3.07404 23.1681 4.42624 23.5365 5.23102C23.905 6.02175 23.9524 7.65469 20.4257 8.94139L20.1993 9.00689C18.9255 5.99836 20.2414 4.58065 21.1521 4.26716ZM22.0732 32.8646C21.4416 32.8646 20.9257 32.4108 20.9257 31.8446C20.9257 31.2785 21.4363 30.8246 22.0732 30.8246C22.7101 30.8246 23.2207 31.2785 23.2207 31.8446C23.2207 32.4108 22.7101 32.8646 22.0732 32.8646ZM25.1894 19.2256C23.1523 16.4323 24.1892 14.8555 25.0209 14.3876C25.8684 13.9104 26.7527 12.867 26.7527 12.867C26.7527 12.867 27.0317 14.1958 27.5791 14.921C28.116 15.6275 28.5266 17.195 25.4473 19.0431L25.1841 19.2256H25.1894ZM27.4001 32.8646C26.7685 32.8646 26.2526 32.4108 26.2526 31.8446C26.2526 31.2785 26.7632 30.8246 27.4001 30.8246C28.0371 30.8246 28.5476 31.2785 28.5476 31.8446C28.5476 32.4108 28.0371 32.8646 27.4001 32.8646ZM25.3315 2.50789C25.3315 2.50789 26.8422 2.85413 27.8423 2.7278C28.7793 2.61083 30.511 2.93835 31.1743 5.81588L31.2795 6.26505C31.2901 6.31184 31.3006 6.33992 31.3059 6.38671C27.3054 6.87799 26.3105 5.36203 26.1737 4.50111C26.0368 3.64019 25.3315 2.50789 25.3315 2.50789ZM27.3844 9.21744C27.2475 8.35652 26.5422 7.22423 26.5422 7.22423C26.5422 7.22423 28.0581 7.57047 29.053 7.44882C30.0373 7.32717 31.8954 7.66873 32.4744 10.944L32.4902 11.1358C28.7845 11.4961 27.516 10.0503 27.3791 9.21744M34.9958 15.8194C34.9958 15.8194 35.0063 15.8568 35.0063 15.8755C31.0058 16.3668 30.011 14.8508 29.8741 13.9899C29.7373 13.129 29.0319 11.9967 29.0319 11.9967C29.0319 11.9967 30.5426 12.343 31.5427 12.2166C32.4902 12.0996 34.2325 12.4272 34.8852 15.3655L34.9905 15.8147L34.9958 15.8194Z" fill="#231F20"/>
</svg>
