<svg width="18" height="18" viewBox="0 0 18 18" fill="none" xmlns="http://www.w3.org/2000/svg">
<path d="M15 7.63636C15 12.4091 9 16.5 9 16.5C9 16.5 3 12.4091 3 7.63636C3 6.0089 3.63214 4.44809 4.75736 3.2973C5.88258 2.14651 7.4087 1.5 9 1.5C10.5913 1.5 12.1174 2.14651 13.2426 3.2973C14.3679 4.44809 15 6.0089 15 7.63636Z" fill="#F3F0EB"/>
<path d="M9 9.75C10.2426 9.75 11.25 8.74264 11.25 7.5C11.25 6.25736 10.2426 5.25 9 5.25C7.75736 5.25 6.75 6.25736 6.75 7.5C6.75 8.74264 7.75736 9.75 9 9.75Z" fill="#221E1F"/>
</svg>
