<svg width="24" height="24" viewBox="0 0 24 24" fill="none" xmlns="http://www.w3.org/2000/svg">
<path d="M12.0377 3.28906C7.09761 3.28906 3.07723 7.16139 3.07548 11.9204C3.07432 13.4422 3.48774 14.9275 4.27161 16.2357L3 20.7084L7.75142 19.5082C9.07309 20.1996 10.5427 20.5602 12.0343 20.5592H12.0377C16.9779 20.5592 20.9983 16.6863 21 11.9273C21.0012 9.62216 20.0698 7.45229 18.3772 5.82126C16.6852 4.18964 14.4352 3.28964 12.0377 3.28906ZM12.0377 19.1012H12.0348C10.6982 19.1012 9.3871 18.7551 8.24323 18.1013L7.97032 17.9457L5.15187 18.6576L5.90439 16.0098L5.72729 15.7387C4.98343 14.6042 4.58745 13.277 4.58806 11.9204C4.58981 7.96442 7.932 4.74706 12.0406 4.74706C14.0299 4.74764 15.9002 5.49493 17.3071 6.85074C18.714 8.20655 19.488 10.0095 19.4868 11.9267C19.4851 15.8827 16.1435 19.1012 12.0372 19.1012H12.0377ZM16.1237 13.7273C15.8996 13.6199 14.7987 13.0979 14.5932 13.0253C14.3882 12.9539 14.239 12.9167 14.0897 13.1327C13.9411 13.3487 13.5114 13.8347 13.3814 13.9782C13.2501 14.1222 13.1195 14.1396 12.8954 14.0322C12.6712 13.9242 11.9495 13.6965 11.0948 12.9615C10.4288 12.3901 9.97935 11.684 9.84871 11.4675C9.71806 11.252 9.83477 11.1353 9.94684 11.0279C10.0473 10.9321 10.171 10.7765 10.2825 10.6505C10.3939 10.5245 10.4311 10.4345 10.5066 10.2905C10.5809 10.1471 10.5437 10.0205 10.4874 9.91306C10.4311 9.80448 9.984 8.74306 9.79645 8.31164C9.61529 7.89126 9.43064 7.94758 9.29303 7.94061C9.16239 7.9348 9.01374 7.93306 8.86335 7.93306C8.71529 7.93306 8.472 7.98706 8.26645 8.20306C8.06148 8.41906 7.48258 8.94048 7.48258 10.0019C7.48258 11.0639 8.28503 12.0893 8.3971 12.2333C8.50916 12.3767 9.97645 14.5559 12.223 15.4907C12.7572 15.712 13.1741 15.8449 13.4998 15.9448C14.0363 16.1091 14.5246 16.0853 14.9102 16.0302C15.3399 15.968 16.2352 15.5087 16.421 15.0053C16.608 14.5019 16.608 14.0699 16.5523 13.9799C16.4977 13.8899 16.3479 13.8359 16.1237 13.7273Z" fill="#231F20"/>
</svg>
